<svg xmlns="http://www.w3.org/2000/svg" version="1.1" xmlns:xlink="http://www.w3.org/1999/xlink"
	preserveAspectRatio="none" x="0px" y="0px" width="256px" height="256px" viewBox="0 0 256 256">
	<defs>
		<g id="Layer0_0_FILL">
			<path fill="#B84682" fill-opacity="0.996078431372549" stroke="none" d="
M 159.1 36.9
Q 146.25 24 128 24 109.75 24 96.85 36.9 84 49.75 84 68 84 86.25 96.85 99.15 109.75 112 128 112 146.25 112 159.1 99.15 172 86.25 172 68 172 49.8 159.1 36.9
M 200.95 135.05
Q 193.95 128 184 128
L 72 128
Q 62.05 128 55 135.05 48 142.05 48 152
L 48 160
Q 48 171.95 53.45 183.3 58.95 194.85 69.15 203.85 92.1 224 128 224 163.85 224 186.85 203.85 197.05 194.85 202.55 183.3 208 171.95 208 160
L 208 152
Q 208 142.05 200.95 135.05 Z" />
		</g>
	</defs>

	<g transform="matrix( 1, 0, 0, 1, 0,0) ">
		<use xlink:href="#Layer0_0_FILL" />
	</g>
</svg>
